<?xml version="1.0" standalone="no"?>
<!DOCTYPE svg PUBLIC "-//W3C//DTD SVG 20010904//EN"
 "http://www.w3.org/TR/2001/REC-SVG-20010904/DTD/svg10.dtd">
<svg version="1.0" xmlns="http://www.w3.org/2000/svg"
 width="300.000000pt" height="300.000000pt" viewBox="0 0 300.000000 300.000000"
 preserveAspectRatio="xMidYMid meet">
<metadata>
Created by potrace 1.14, written by Peter Selinger 2001-2017
</metadata>
<g transform="translate(0.000000,300.000000) scale(0.100000,-0.100000)"
fill="#000000" stroke="none">
<path d="M180 1245 l0 -135 30 0 c29 0 29 1 32 63 l3 62 24 -63 c23 -60 25
-63 55 -60 27 3 33 9 50 56 10 28 22 52 27 52 5 0 7 -24 6 -52 -2 -53 -2 -53
31 -56 l32 -3 0 136 0 136 -37 -3 c-36 -3 -36 -4 -71 -96 -19 -51 -38 -89 -42
-85 -4 4 -22 47 -40 96 -32 86 -33 87 -66 87 l-34 0 0 -135z"/>
<path d="M570 1299 c44 -71 50 -87 50 -135 0 -53 0 -54 30 -54 29 0 30 1 30
48 0 39 9 61 50 130 28 46 50 85 50 88 0 2 -15 4 -33 4 -28 0 -36 -6 -63 -51
l-31 -51 -31 51 c-29 46 -35 51 -67 51 l-35 0 50 -81z"/>
<path d="M840 1245 l0 -135 30 0 c30 0 30 0 30 56 l0 55 53 -3 52 -3 3 -52 c3
-51 4 -53 33 -53 l29 0 0 135 0 135 -29 0 c-29 0 -30 -2 -33 -52 l-3 -53 -52
-3 -53 -3 0 55 c0 56 0 56 -30 56 l-30 0 0 -135z"/>
<path d="M1203 1360 c-46 -28 -66 -72 -60 -134 4 -41 11 -55 40 -82 48 -44 92
-51 151 -25 38 16 51 29 67 67 28 62 19 106 -31 156 -33 34 -43 38 -86 38 -31
0 -61 -7 -81 -20z m127 -60 c20 -20 24 -36 20 -75 -5 -45 -62 -75 -103 -54
-50 27 -61 78 -26 123 26 33 79 36 109 6z"/>
<path d="M1490 1245 l0 -135 90 0 c89 0 90 0 90 25 0 24 -3 25 -60 25 l-60 0
0 110 0 110 -30 0 -30 0 0 -135z"/>
<path d="M1720 1355 c0 -22 4 -25 35 -25 l35 0 0 -85 0 -85 -35 0 c-31 0 -35
-3 -35 -25 l0 -25 100 0 c99 0 100 0 100 24 0 21 -6 25 -32 28 l-33 3 0 80 0
80 33 3 c26 3 32 7 32 28 0 24 -1 24 -100 24 l-100 0 0 -25z"/>
<path d="M1990 1244 l0 -136 81 4 c79 3 82 4 115 40 30 33 34 44 34 92 0 92
-53 136 -165 136 l-65 0 0 -136z m153 54 c40 -47 9 -128 -52 -131 l-33 -2 1
78 c0 42 0 80 1 83 1 13 66 -9 83 -28z"/>
<path d="M2321 1258 c-25 -68 -46 -129 -49 -135 -3 -9 7 -13 28 -13 23 0 33 5
37 20 4 17 14 20 54 20 38 0 51 -4 59 -20 7 -13 21 -20 40 -20 17 0 30 1 30 3
0 1 -22 61 -48 132 -46 125 -49 130 -78 133 -29 3 -30 2 -73 -120z m99 -40 c0
-13 -8 -18 -26 -18 -25 0 -26 2 -19 37 4 21 10 42 13 48 7 11 31 -41 32 -67z"/>
<path d="M2560 1375 c0 -3 23 -41 50 -85 43 -68 50 -87 50 -130 0 -49 1 -50
30 -50 30 0 30 1 30 53 0 45 7 64 50 135 l49 82 -33 0 c-30 0 -38 -6 -67 -51
l-32 -51 -31 51 c-27 45 -35 51 -63 51 -18 0 -33 -2 -33 -5z"/>
<path d="M340 949 c-95 -43 -150 -123 -158 -229 -6 -88 22 -154 90 -215 176
-159 430 -45 416 186 l-3 51 -115 0 -115 -1 0 -48 0 -48 58 -3 c61 -3 66 -9
41 -47 -30 -47 -113 -58 -174 -24 -72 41 -97 124 -58 198 13 25 35 54 50 65
39 28 113 27 163 -3 21 -12 41 -18 44 -14 3 4 19 22 35 40 26 28 27 34 15 49
-50 60 -202 83 -289 43z"/>
<path d="M810 786 c0 -188 6 -226 42 -279 42 -60 153 -90 247 -67 62 15 104
47 134 104 20 38 21 55 22 231 l0 190 -60 0 -60 0 -3 -181 c-2 -181 -3 -182
-29 -208 -35 -35 -100 -36 -140 -2 l-28 24 -3 186 -3 186 -60 0 -59 0 0 -184z"/>
<path d="M1380 915 l0 -55 65 0 65 0 0 -155 0 -155 -65 0 -65 0 0 -55 0 -55
190 0 190 0 0 55 0 55 -65 0 -65 0 0 155 0 155 65 0 65 0 0 55 0 55 -190 0
-190 0 0 -55z"/>
<path d="M1900 705 l0 -267 128 4 c143 5 177 15 240 73 51 45 77 111 76 190 0
78 -18 128 -63 178 -58 64 -105 80 -253 85 l-128 4 0 -267z m257 135 c44 -26
63 -68 63 -137 0 -101 -51 -153 -150 -153 l-50 0 0 155 0 155 53 0 c34 0 63
-7 84 -20z"/>
<path d="M2470 715 c0 -140 0 -258 0 -262 0 -5 78 -8 173 -8 l172 0 0 50 0 50
-112 3 -113 3 0 49 0 49 103 3 102 3 3 53 3 52 -105 0 -106 0 0 50 0 49 113 3
112 3 0 50 0 50 -172 3 -173 2 0 -255z"/>
</g>
</svg>
